<svg width="50" height="51" viewBox="0 0 50 51" fill="none" xmlns="http://www.w3.org/2000/svg">
<g clip-path="url(#clip0_1496_3172)">
<path d="M0 25.6143C0 11.8072 11.1929 0.614319 25 0.614319C38.8071 0.614319 50 11.8072 50 25.6143C50 39.4214 38.8071 50.6143 25 50.6143C11.1929 50.6143 0 39.4214 0 25.6143Z" fill="white"/>
<g clip-path="url(#clip1_1496_3172)" filter="url(#filter0_d_1496_3172)">
<path d="M39.9473 32.8096L38.3828 23.4346C38.2305 22.5323 37.4512 21.8702 36.5312 21.8702H22.1875V18.1202H27.8125C28.3281 18.1202 28.75 17.6983 28.75 17.1827V11.5518C28.75 11.0362 28.3281 10.6143 27.8125 10.6143H12.8125C12.2969 10.6143 11.875 11.0362 11.875 11.5518V17.1768C11.875 17.6924 12.2969 18.1143 12.8125 18.1143H18.4375V21.8643H13.4629C12.5488 21.8643 11.7637 22.5264 11.6113 23.4288L10.0469 32.8038C10.0117 33.0089 9.99414 33.2139 9.99414 33.419V38.7393C9.99414 39.7764 10.832 40.6143 11.8691 40.6143H38.1191C39.1562 40.6143 39.9941 39.7764 39.9941 38.7393V33.4249C40 33.2198 39.9824 33.0147 39.9473 32.8096ZM26.4062 25.1456C26.4062 24.6299 26.8281 24.2081 27.3438 24.2081H28.2812C28.7969 24.2081 29.2188 24.6299 29.2188 25.1456V26.0831C29.2188 26.5987 28.7969 27.0206 28.2812 27.0206H27.3438C26.8281 27.0206 26.4062 26.5987 26.4062 26.0831V25.1456ZM24.5312 28.8956H25.4687C25.9844 28.8956 26.4062 29.3174 26.4062 29.8331V30.7706C26.4062 31.2862 25.9844 31.7081 25.4687 31.7081H24.5312C24.0156 31.7081 23.5937 31.2862 23.5937 30.7706V29.8331C23.5937 29.3174 24.0156 28.8956 24.5312 28.8956ZM22.6562 24.2081C23.1719 24.2081 23.5937 24.6299 23.5937 25.1456V26.0831C23.5937 26.5987 23.1719 27.0206 22.6562 27.0206H21.7188C21.2031 27.0206 20.7812 26.5987 20.7812 26.0831V25.1456C20.7812 24.6299 21.2031 24.2081 21.7188 24.2081H22.6562ZM14.6875 15.3018V13.4268H25.9375V15.3018H14.6875ZM17.0312 27.0206H16.0937C15.5781 27.0206 15.1562 26.5987 15.1562 26.0831V25.1456C15.1562 24.6299 15.5781 24.2081 16.0937 24.2081H17.0312C17.5469 24.2081 17.9688 24.6299 17.9688 25.1456V26.0831C17.9688 26.5987 17.5469 27.0206 17.0312 27.0206ZM17.9688 30.7706V29.8331C17.9688 29.3174 18.3906 28.8956 18.9062 28.8956H19.8438C20.3594 28.8956 20.7812 29.3174 20.7812 29.8331V30.7706C20.7812 31.2862 20.3594 31.7081 19.8438 31.7081H18.9062C18.3906 31.7081 17.9688 31.2862 17.9688 30.7706ZM30.625 37.3331C30.625 37.5909 30.4141 37.8018 30.1562 37.8018H19.8438C19.5859 37.8018 19.375 37.5909 19.375 37.3331V36.3956C19.375 36.1378 19.5859 35.9268 19.8438 35.9268H30.1562C30.4141 35.9268 30.625 36.1378 30.625 36.3956V37.3331ZM32.0312 30.7706C32.0312 31.2862 31.6094 31.7081 31.0937 31.7081H30.1562C29.6406 31.7081 29.2188 31.2862 29.2188 30.7706V29.8331C29.2188 29.3174 29.6406 28.8956 30.1562 28.8956H31.0937C31.6094 28.8956 32.0312 29.3174 32.0312 29.8331V30.7706ZM34.8437 26.0831C34.8437 26.5987 34.4219 27.0206 33.9062 27.0206H32.9687C32.4531 27.0206 32.0312 26.5987 32.0312 26.0831V25.1456C32.0312 24.6299 32.4531 24.2081 32.9687 24.2081H33.9062C34.4219 24.2081 34.8437 24.6299 34.8437 25.1456V26.0831Z" fill="url(#paint0_linear_1496_3172)"/>
</g>
</g>
<defs>
<filter id="filter0_d_1496_3172" x="-30" y="-9.38568" width="110" height="110" filterUnits="userSpaceOnUse" color-interpolation-filters="sRGB">
<feFlood flood-opacity="0" result="BackgroundImageFix"/>
<feColorMatrix in="SourceAlpha" type="matrix" values="0 0 0 0 0 0 0 0 0 0 0 0 0 0 0 0 0 0 127 0" result="hardAlpha"/>
<feOffset dy="20"/>
<feGaussianBlur stdDeviation="20"/>
<feColorMatrix type="matrix" values="0 0 0 0 0.215686 0 0 0 0 0.329412 0 0 0 0 0.666667 0 0 0 0.2 0"/>
<feBlend mode="normal" in2="BackgroundImageFix" result="effect1_dropShadow_1496_3172"/>
<feBlend mode="normal" in="SourceGraphic" in2="effect1_dropShadow_1496_3172" result="shape"/>
</filter>
<linearGradient id="paint0_linear_1496_3172" x1="9.99414" y1="10.6143" x2="45.9239" y2="22.1522" gradientUnits="userSpaceOnUse">
<stop stop-color="#FF8008"/>
<stop offset="1" stop-color="#FFC837"/>
</linearGradient>
<clipPath id="clip0_1496_3172">
<path d="M0 25.6143C0 11.8072 11.1929 0.614319 25 0.614319C38.8071 0.614319 50 11.8072 50 25.6143C50 39.4214 38.8071 50.6143 25 50.6143C11.1929 50.6143 0 39.4214 0 25.6143Z" fill="white"/>
</clipPath>
<clipPath id="clip1_1496_3172">
<rect width="30" height="30" fill="white" transform="translate(10 10.6143)"/>
</clipPath>
</defs>
</svg>
